<?xml version="1.0" encoding="UTF-8"?><svg id="Layer_1" xmlns="http://www.w3.org/2000/svg" width="512" height="512" viewBox="0 0 512 512"><g id="left_leg"><path d="M166.04,375.18s5.86,29.48,5.86,43.4c0,11.11-5.28,51.22.81,51.92,6.1.7,22.04-9.13,28.85-14.86,6.81-5.74,14.72-31.7,11.84-47.28-3.04-16.42-14.79-32.7-14.79-32.7l-25.24-2.03-7.34,1.57Z" fill="#4c4c4d"/></g><g id="left_foot"><path d="M169.11,461.31c3.95-14.88,14.88-21.95,34.09-24.11,18.28-2.05,33.72,8.34,33.53,24.88-.07,5.74-2.34,11.05-8.07,10.98l-51.72-.59c-5.74-.07-9.29-5.62-7.82-11.16Z" fill="#fff"/></g><path id="right_leg" d="M248.41,396.98s30.61-5.39,39.12,1.76c8.51,7.15,15.35,32.27,20.68,29.22,5.33-3.04,15.97-5.08,18.07-13.74,2.1-8.66-4.79-37.07-18.44-45.12-13.65-8.05-44.68.87-44.68.87l-6.38,5.1-8.37,21.9Z" fill="#4c4c4d"/><g id="right_foot"><path d="M299.93,421.35c2.19-15.23,12.22-23.53,31.05-27.92,17.91-4.17,34.46,4.36,36.2,20.81.6,5.71-1.03,11.24-6.74,11.85l-51.44,5.44c-5.71.6-9.89-4.5-9.07-10.18Z" fill="#fff"/></g><g id="upper_body"><path d="M257.03,151.39c-1.36.25-2.69.61-3.97,1.03l9.96,53.86c39.1-2.8,32.77-60.64-5.99-54.89ZM282.3,185.68c-3.37,4.51-7.67,1.14-11-1.35-2.24,3.51-5.05,8.2-9.84,5.16-4.51-3.36-1.14-7.67,1.32-11.02-3.52-2.23-8.17-5.08-5.14-9.82,3.36-4.51,7.66-1.15,11,1.33,2.25-3.51,5.08-8.17,9.84-5.14,4.51,3.37,1.15,7.67-1.35,11,3.51,2.24,8.2,5.05,5.16,9.84Z" fill="#fbc5b7"/><path d="M260.15,182.33l2.63-3.85c-3.52-2.23-8.17-5.08-5.14-9.82,3.36-4.51,7.66-1.15,11,1.33,2.25-3.51,5.08-8.17,9.84-5.14,4.51,3.37,1.15,7.67-1.35,11,3.51,2.24,8.2,5.05,5.16,9.84-3.36,4.51-7.67,1.15-11-1.35l-2.65,3.85c-3.82,5.52-12.33-.27-8.49-5.86Z" fill="#ee9583"/><path d="M139.13,356.34l9.78,9.39,4.12-11.21-13.29-13.25s-10.82,2.16-14.44,4.99c-3.62,2.84-1.01,8.16-1.01,8.16l14.83,1.92Z" fill="#f7f7f7"/><path d="M250.85,305.13c1.73,3.11,15.49,24.85,21.19,31.21,13.05,16.65,37.24,38.5,45.63,10.08,4.38-14.46,2.83-35.14,2.83-35.14.03-.35-.73-6.02-2.85-13.42-8.29-34.16-33.9-43.22-63.57-43.13-17.51-4.47-3.47,48.18-3.22,50.39Z" fill="#fbc5b7"/><path d="M250.85,305.13c.32.38,4.22,7.27,10.12,16.04l.49-5.57s4.83,6.92,12.69,14.29c7.52-22.79,19.79-34.65,42.03-36.75-9.3-33.8-42.82-40.16-66.78-37.91-9.13,1.82.56,48.84,1.46,49.91Z" fill="#f7f7f7"/><path d="M312.29,364.65v.02c14.28,1.2,42.77-11.55,44.84-14.03,4.18,6.02,18.09.51,20.99-1.18,0,0,2.7,3.01,6.09,2.43,6-1.03,20.52-7.05,21.93-13.13,1.4-6.11-1.85-12.51-1.85-12.51-28.13,1.76-64.32,5.88-92.36,8.66l.35,29.73Z" fill="#fbc5b7"/><path d="M313.06,350.93c14.1-.26,37.16-8.22,41-10.66,1.55,3.87,2.5,7.38,3.07,10.38,2.28,2.93,7.27,3.23,11,2.44,0,0,9.65-4.15,9.65-4.15l-5.31-12.19,31.83-10.49c3.98-2.97,2.7-13.17-1.1-18.67,0,0,2.54-8.12-6.59-14.7-5.82-5.12-18.26-1.1-21.73,1.56-12.99-12.42-21.8.8-26.53,12.46-1.22-.4-8.62-1.75-11.74-2.03-6.11-.71-13.92-1.04-21.77.07-11.77,1.62-29.19,15.82-32.3,30.66.26.67,6.68,16.92,30.53,15.32Z" fill="#fbc5b7"/><path d="M362.92,313.03c5.82,4.89,13.6,2.42,15.62-.82,2.75-4.43-3.67-17.75-3.67-17.75,0,0-.88-.94-2.3-2.01-.05.1,3.14,7.49,2.4,12.98-.71,5.4-6.31,7.03-9.18,5.08-4.39-2.99-6.64-9.37-7.68-9.27-1.04.08-1.04,6.89,4.8,11.79Z" fill="#ee9583"/><path d="M404.09,309.01c-6.1-5.22-21.39-2.09-26.14,1.78l-.53-5.35s5.54-2.38,13.12-2.65c8.68.11,12.7,4.58,13.54,6.21Z" fill="#ee9583"/><path d="M321.14,350.08c16.2-2.34,28.63-7.76,32.92-9.81-7.5-13.68-7.79-27.55-5.71-33.35-1.28-.33-8.58-1.8-11.74-2.03-10.46.85-24.05,24.74-15.46,45.2Z" fill="#fbc5b7"/><path d="M348.35,306.91c-6.01,6.54-1.91,49.97,18.06,46.45,4.01-.28-2.69-28.9-2.69-28.9l-8.17-12.83-7.2-4.72Z" fill="#fbc5b7"/><path d="M404.3,326.26s-4.2-1.9-13.28-.45c-6.54,1.04-10.38,2.59-10.38,2.59-1.45-1.54-8.76-13.4-5.4-17.38l-6.32,2.21c-.94,4.67,2.51,15.48,7.22,18.42-3.37,5.7-2.16,18.42,6.11,20.22-3.6-5.22-5.77-13.39.17-18.51,0,0,13.73-6.75,21.87-7.08Z" fill="#ee9583"/><path d="M372.58,292.45s-4.95-6.89-14.84-2.58c-9.89,4.31-14.54,24.69-11.84,35.82.55,2.26,7.24-18.81,7.24-18.81,1.82-5.06,4.53-9.36,10.2-11.73,0,0,.49,2.28,3.11,1.13,2.62-1.14,6.13-3.83,6.13-3.83Z" fill="#fbc5b7"/><path d="M321.14,350.08c1.8,4.69,5.49,9.76,8.01,12.31,16.08-3.98,27.5-11.53,27.5-11.53-2.26-2.34-4.67-5.14-6.22-9-4.34,1.78-13.01,5.25-29.29,8.23Z" fill="#ee9583"/><path d="M284.32,350.09c7.54,15.35,29.63,16.6,44.83,12.3-2.53-2.55-6.22-7.61-8.01-12.31-24.76,5.45-36.86-10.61-38.37-16.99-1.04,4.8-.88,12.29,1.56,17.01Z" fill="#ee9583"/><path d="M299.79,286.51c.37,3.93-2.18,39.59-2.18,39.59-4.11,12.63-8.85,26.36-13.02,38.05l-118.53,21.92c-8.62-10.92-20.86-22.32-27.41-35.46-2.61-3.29-6.68-5.83-8.97-8.78-7.03-9.1-12.05-16.23-12.78-18.87-3.74-13.52-1.62-27.52,2.88-34.06,2.71-3.94,14.34-8.21,28.18-12.05,24.04-6.7,54.09-12.04,56.97-12.56,4.11-.8,71.66-6.49,82.4.89,6.53,4.49,11.13,7.35,12.47,21.31Z" fill="#f7f7f7"/><path d="M284.58,364.16c-2.47,6.92-5.85,16.15-7.81,21.24-1.65,4.24-5.37,7.33-9.86,8.16l-73.85,13.66c-4.49.83-9.07-.72-12.11-4.09-3.68-4.05-10.12-11.46-14.91-17.04l118.53-21.92Z" fill="#4c4c4d"/><path d="M209.34,288.75s11.53-1.28,13.17-1.59c1.65-.3,7.07,1.4,7.07,1.4,0,0,4.91-3.15,6.33-3.42s12.5-4.4,12.5-4.4c0,0-13.3.91-15.54,1.33-2.24.42-4.62,2.63-4.62,2.63-8.36-1.28-12.28.73-18.91,4.04Z" fill="#c0cadd"/><path d="M294.99,333.85c2.48-20.08,2.95-44.22-4.44-58.37,0,0,10.24,9.06,11.75,17.24-.32,7.51-4.16,32.12-7.31,41.14Z" fill="#c0cadd"/><path d="M136.18,338.96l-4.9,2.68c-6.11-1.1-12.31-2.46-18.33-4.07,1.42-1.2,3.36-2.9,5.07-4.52,2,.84,4.03,1.67,6.01,2.36,7.01,2.52,12.16,3.55,12.16,3.55Z" fill="#c0cadd"/><path d="M138.43,353.66c-14.47,11.23-55.37,36.4-54.76,1.41,2.97-30.67,11.68-46.32,29.72-63.22,1.8,2.19,4.6,3.52,8.34,3.01,19.28-2.64,36.29,5.41,51.13,16.68-5.1,11.67-11.74,23.34-12.95,24.65.4-.21-16.01,13.78-21.48,17.47Z" fill="#fbc5b7"/><path d="M166.75,327.27c-9.81,13.39-5.4,7.42-21.38,21.1-1.87,3.12-8,7.17-12.29,9.09-.12-4.2,1.68-8.05,2.46-12.31,1.41-7.15.83-15.92-12.02-28.85-7.61-7.68-16.78-9.16-22.15-11.5,5.22-7.02,12.28-14.57,20.52-18.51,17.77-8.49,49.17,5.75,54.44,15.84,2.7,5.17-3.93,16.91-9.58,25.14Z" fill="#f7f7f7"/><path d="M164.43,433.64c-4.62,9.36-12.45,8.24-12.45,8.24-5.21,5.05-13.42,4.69-13.42,4.69-25.67,9.79-34.72-32.68-40.02-40.88-2.28-4.52-6.42-13.78-9.11-22.84-4.55-15.8-11.92-37.88,5.78-43.28,11.84-8.68,27.47-1.15,36.81,7.87,10.29,9.24,11.54,21.02,12.42,33.18.19,2.84.09,9.9-.1,11,11.21,2.62,24.99,9.46,15.37,22.4,2.99,2.78,8.53,13.52,4.71,19.61Z" fill="#fbc5b7"/><path d="M134.98,369.29c-3.39-11.73-9.47-21.93-9.47-21.93,0,0,3.37.7,6.51.09,8.41,7.63,10.59,16.33,11.81,26.16,0,0-2.97-2.6-8.84-4.32Z" fill="#ee9583"/><path d="M164.43,433.64c-4.62,9.36-12.45,8.24-12.45,8.24-5.21,5.05-13.42,4.69-13.42,4.69-3.02,1.68-15.34,2.63-21.22-4.69,3.86,1.66,14.51,2.89,15.8.28,2.83.72,12.9.17,14.09-5.1,0,0,6.59.17,9.47-6.69,2.88-6.88-6.26-14.47-6.26-14.47,2.07-11.95-2.18-14.79-11.13-19.97,0,0-.41-.13-1.03-4.24,7.15-.31,5.68-.27,10.94,1.35,10.64,3.39,18.37,10.3,10.52,20.97,2.99,2.78,8.53,13.52,4.71,19.61Z" fill="#ee9583"/><path d="M125.51,347.36s4.22.41,8.89-.7c0,0,2.21,5.55,2.38,7.62s-3.6.5-3.6.5c-1.84-1.83-5.79-5.68-7.67-7.42Z" fill="#ee9583"/><path d="M144.42,380.58s.02.05.02.05c.19,2.84.09,9.9-.1,11,0,0-2.3-.18-6.08.08-.77-4.7-1.15-16.26-3.28-22.42,5.87,1.71,8.84,4.32,8.84,4.32.31,2.47.49,4.83.59,6.97Z" fill="#ef6535"/><path d="M138.27,391.71c-13.43.18-34.31,9.54-37.76,17.79-3.81-7.21-7.52-15.15-11.08-26.64,8.77-12.86,35.11-17.81,45.55-13.57,2.13,6.14,2.52,17.74,3.28,22.42Z" fill="#ff8856"/><path d="M253.55,97.98c4.74,8.03,17.67,89.71,20.24,100.36l-156.98,29.04,1.06,5.75c-40.54,11.55-51.95-50.16-9.96-53.86l-3.46-18.73c8.57.57,14.17-11.24,17.53-22.41,3.08-10.27,13.16-16.74,23.77-15.17,26.76,5.12,79.11,3.19,107.81-24.97Z" fill="#fbc5b7"/><path d="M268.42,17.19c-15.39-13.89-55.41.96-73.19,8.61-15.65,4.23,3.95-27.12-37.11-13.98-25.94,8.88-40.79,34.24-47.23,48.21-2.36,5.1-6.43,9.21-11.58,11.49-36.72,16.76-21.3,83.67,5.13,89.01,8.57.57,14.17-11.24,17.53-22.41,3.08-10.27,13.16-16.74,23.77-15.17,23.91,3.55,65.02,5.3,96.22-16.11,41.99-26.15,48.57-71.41,26.46-89.65Z" fill="#4c4c4d"/><path d="M112.02,209.72l-3.84-2.64c2.48-3.35,5.82-7.66,1.3-11.02-4.76-3.01-7.58,1.66-9.81,5.18-3.35-2.48-7.66-5.82-11.02-1.3-3.01,4.76,1.66,7.58,5.18,9.81-2.47,3.34-5.83,7.64-1.3,11.02,4.76,3.01,7.58-1.66,9.81-5.18l3.85,2.64c5.55,3.79,11.4-4.66,5.84-8.51Z" fill="#ee9583"/><path d="M273.78,198.34l7.11,38.42c3.39,18.34-8.73,35.96-27.07,39.35l-90.59,16.76c-18.34,3.39-35.94-8.73-39.33-27.07l-7.11-38.42,156.98-29.04Z" fill="#dbbab4"/><path d="M167.01,127.44c-14.32-1.02-26.29,8.23-26.79,8.62-5.63,4.46,1.14,13.02,6.76,8.62.09-.07,9.27-7.03,19.25-6.32,7.14.5,7.94-10.39.78-10.93Z" fill="#4c4c4d"/><path d="M241.3,117.37c-.61-.19-15.1-4.55-28.1,1.53-2.74,1.28-3.92,4.54-2.64,7.28,1.28,2.74,4.55,3.93,7.28,2.64,12.08-4.89,18.85-.26,22.84-.83,5.44-.8,6.05-9.15.62-10.63Z" fill="#4c4c4d"/><path d="M194.12,162.67c-22.96-24.03-64.23-2.96-57.99,29.93,3.35,18.29,21.08,30.79,39.73,27.33,26.56-4.41,37.04-38.75,18.25-57.26Z" fill="#f7f7f7"/><path d="M250.94,152.16c-22.22-25.98-54.06-2.11-47.76,28.04,4.91,30.41,43.18,41.34,54.63,9.1,4.24-11.58,1.24-27.84-6.87-37.14Z" fill="#f7f7f7"/><path d="M183.32,184.87c-17.3,3.66-12.58,29.13,4.87,26.35,17.3-3.66,12.58-29.13-4.87-26.35Z" fill="#4c4c4d"/><path d="M240.26,174.34c-14.93,3.17-10.43,27.46,4.64,25.08,14.93-3.17,10.43-27.46-4.64-25.08Z" fill="#4c4c4d"/><path d="M223.93,201.15l-7.15-15.28c-4.12-8.82-17.27-6.39-17.98,3.32l-1.22,16.83c-.44,6.04,4.95,10.86,10.91,9.76l8.73-1.62c5.95-1.1,9.26-7.53,6.7-13.01Z" fill="#ee9583"/><path d="M135.55,345.17c-.46,2.31-1.13,4.44-1.66,6.51-2.92-2.04-6.5-4.3-8.12-4.33.97-.07,4.55-.41,9.78-2.18Z" fill="#ee9583"/><path d="M168.89,322.16c-3.91,14.66-22.16,26.47-30.63,32.75-.77-.59-2.22-1.71-4.37-3.22.52-2.07,1.21-4.21,1.65-6.53,11.15-2.52,31.6-19.51,33.34-22.99Z" fill="#c0cadd"/><path d="M233.83,239.45c-9.19,15.57-37.22,15.03-43.63,1.22-4.9-9.12-1.64-15.11.73-14.83,6.36.03,16.33-.61,24.3-2.08,7.81-1.29,12.12-4.95,17.39-5.11,3.73.69,6.3,11.86,1.21,20.8Z" fill="#4c4c4d"/><path d="M228.37,232.12c2.19,1.51,4.53,4.2,5.46,7.33-6.93,13.42-32.05,14.49-39.12,6.59.13-4.33,2.9-8.23,2.9-8.23-4.32-2.97-6.27-8.89-6.67-11.97,6.36.03,16.33-.61,24.3-2.08,6.39-1.18,11.67-3.98,15.06-4.86.71,5.65-1.92,13.23-1.92,13.23Z" fill="#fff"/><path d="M101.01,472.7c20.99-.75,50.12-1.72,70.78-2.17,24.69-.5,49.4-2.16,74.09-.43-.63,11.2-1.32,22.37-2.94,33.5h-.73c-1.46-10.15-2.21-20.32-2.76-30.54l3.13,3.13c-46.46,1.63-94.98-1.74-141.57-2.76v-.73Z" fill="#4c4c4d"/><path d="M133.48,473.07s84.81,3.83,96.34,8.85c11.53,5.02,12.11,16.28,12.75,15.64.65-.65,0-24.49,0-24.49h-109.09Z" fill="#4c4c4d"/><path d="M434.87,473.43c-46.63,1.02-95.07,4.39-141.57,2.76l3.13-3.13c-.55,10.22-1.3,20.39-2.76,30.54h-.73c-1.62-11.12-2.31-22.3-2.94-33.5,24.69-1.73,49.4-.07,74.09.43,20.57.44,49.95,1.42,70.78,2.17v.73Z" fill="#4c4c4d"/><path d="M402.39,473.07s-84.81,3.83-96.34,8.85c-11.53,5.02-12.11,16.28-12.75,15.64-.65-.65,0-24.49,0-24.49h109.09Z" fill="#4c4c4d"/></g></svg>