<?xml version="1.0" encoding="UTF-8"?><svg id="Layer_2" xmlns="http://www.w3.org/2000/svg" width="512" height="512" viewBox="0 0 512 512"><g id="left_arm"><g id="left_upper_arm_2"><path d="M270.55,59.71l90.43-27.25c67.84-18.81,132.92,196.76,65.98,218.6,0,0-90.42,27.25-90.42,27.25-67.84,18.81-132.92-196.76-65.99-218.6Z" fill="#757574"/><path d="M354.38,153.53c-46.96-142.31-148.9-110.22-105.89,33.33,46.96,142.31,148.9,110.22,105.89-33.33Z" fill="#4c4c4d"/><path d="M266.2,125.69l18.1-5.46c31.56-8.75,61.82,91.52,30.69,101.68,0,0-18.09,5.46-18.09,5.46-31.56,8.75-61.82-91.52-30.69-101.68Z" fill="#757574"/><path d="M305.19,169.33c-21.84-66.19-69.25-51.27-49.25,15.5,21.84,66.19,69.25,51.27,49.25-15.5Z" fill="#4c4c4d"/><path d="M364.92,269.21c30.07-12.91,30.09-80.74,22.36-107.83-9.65-34.9-46.67-114.42-90.27-107.98l-.21-.67c17.26-7,35.57,4.14,47.9,15.81,21,20.19,33.77,47.66,41.04,75.53,6.75,31.89,17.13,66.06,5.91,98.14-4.33,12.28-12.99,24.98-26.52,27.67l-.21-.67Z" fill="#4c4c4d"/><path d="M397.46,259.41c30.07-12.91,30.09-80.74,22.36-107.83-9.65-34.9-46.67-114.42-90.27-107.98l-.21-.67c17.26-7,35.57,4.14,47.9,15.81,21,20.19,33.77,47.66,41.04,75.53,6.75,31.89,17.13,66.06,5.91,98.14-4.33,12.28-12.99,24.98-26.52,27.67l-.21-.67Z" fill="#4c4c4d"/><path d="M290.38,175.29c-.27,2.68-2.4,4.51-5.81,5.8-2.28-2.82-5.53-3.37-7.92-4.29.19.37.05-6.74-1.1-9.34,2.31-.97,6.34-2.86,8.65-2.22,3.05.78,5.97,6.42,6.18,10.05Z" fill="#757574"/></g><g id="left_lower_arm"><path d="M261.75,327.55c-.22-7.56-4.35-10.55-5.74-13.8-1.56-3.63-.06-18.57-1.97-32.42-2.35-16.03-6.96-58.44-7.88-68.42l-5.82-6.68c.06-.51.12-1.03.17-1.5,1.86-16.19,25.22-28.12,34.17-11.35,3.77,5.41,1.66,9.96,4.29,17.72,1.86,5.78,3.65,11.36,5.01,17.59,4.18,12.2,7.93,24.81,11.8,37.13,8.35,22.12,16.59,38.95,16.38,41.8-.29,4.21-27.94,12.72-50.41,19.92Z" fill="#f7f7f7"/><path d="M267.32,334.94c-10.84,3.48-18.65,8.02-18.65,8.02,0,0-2.39-34.49-3.99-61.71-.12-5.23,1.01-50.18,3.2-53.66,2.66,13.42,8.72,80.88,10.28,84.51,1.4,3.25,3.85,17.54,9.15,22.84Z" fill="#c0cadd"/></g><g id="left_upper_arm_1"><path d="M289.92,246.17c10.19,27.3-23.9,34.74-35.89,35.17-2.34-15.95-6.97-58.5-7.88-68.42l-5.82-6.68c.06-.51.12-1.03.17-1.5.91-20.84,28.98-28.4,35.85-7.95,1.74,3.79-.1,7.73,2.31,13.76,1.89,4.68,6.19,20.06,7.94,25.18" fill="#fbc5b7"/><path d="M254.04,281.33c-3.47.24-6.6.19-9.35-.09-.9-14.03-1.99-28.24-2.94-42.14,2.24.62,4.66.91,7.26.88,1.41,12.82,3.21,28.16,5.03,41.35Z" fill="#ee9583"/><path d="M274.41,232.62c-9.76,4.9-18.25,7.34-25.41,7.36-1.7-15.35-2.85-27.06-2.85-27.06l-5.82-6.68c.06-.51.12-1.03.17-1.5,2.6-18.41,28.59-28.58,35.85-7.95,1.76,3.76.18,6.41,2.52,12.46,1.79,5.48,3.29,11.72,5,17.69-3.14,3.05-4.03,2.95-9.47,5.68Z" fill="#ff8856"/><path d="M229.92,170.54c-4.16,4.09-3.31,18.53-.46,23.7h.02c.52.78,2.2,1.93,3.48,2.22-.11,3.35,1.29,15.81,7.55,16.65,0,0-.01.15-.03.44.02,0,.03.01.05.03,5.43,2.21,13.08,1.07,18.94-.36-5.5-14.04-12.53-31.24-18.67-45.09t0-.02c-.16-.41-.34-.81-.51-1.17,0,0-6.23.08-10.38,3.61Z" fill="#fbc5b7"/><path d="M277.73,202.26c-5.92,5.88-16.92,9.08-27.99,9.02.04.84.1,2,.21,3.45,10.64-1.03,20.1-3.63,28.71-11.38-.58-.71-.93-1.09-.93-1.09Z" fill="#fbc5b7"/><path d="M285.49,186.25c.3,6.85-4.58,11.5-7.75,16.01,0,0,.35.38.92,1.1-8.6,7.75-18.07,10.36-28.71,11.37-.11-1.45-.16-2.6-.21-3.45-3.62.38-6.7,1.05-9.23,1.83-3.18-.57-5.44-4.32-6.32-7.51-.15-2.08-.5-6.96-.68-9.1,2.65-.19,8.95-.64,11.53-.81-.7-4.2-1.75-10.73-2.46-14.93,0,0-2.29-13.83-2.29-13.83.68-4.29,9.18-7.35,14.85-6.65,0,0,5.22-5.24,13.97-.84,6.06,2.15,8.3,13.61,7.53,17.37,4.32,1.24,8.63,4.37,8.85,9.45Z" fill="#fbc5b7"/><path d="M258.04,197.48c-5.37,1.4-24.74,6.82-23.36,9.56,1.11,2.51,2,4.77,5.81,6.5.02,0,.03.01.05.03,11.37,4.59,33.22-3.95,37.2-11.3-1.64-.89-4.92-2.76-6.54-3.66,0,0-13.16-1.13-13.16-1.13Z" fill="#fbc5b7"/><path d="M278.67,203.35h-.02c-4.43,4.03-9.88,7.21-14.4,8.35-.59.14.24-1.01,1.67-2.67,5.22-6.6,10.24-8.94,14.21-17.02.78-2.54.63-6.05.63-6.05-3.63,1.16-1.57-8.14-1.64-8.21,4.08.73,7.84,5.02,7.96,10.4.35,4.97-3.38,10.61-8.42,15.2Z" fill="#fbc5b7"/><path d="M293.03,187.47c7.84-5.82-3.26-32.32-12.93-30.83,11.73-4.21,24.15,25.4,12.93,30.83Z" fill="#757574"/><path d="M267.15,193.49c-6.12-2.52-7.34-9.5-5.66-12.37,2.31-3.9,15.16-4.33,15.16-4.33,0,0,1.08.3,2.48.96-.06.07-7.04.6-10.97,3.38-3.88,2.72-2.87,7.69-.22,9.12,4.07,2.17,9.9,1.34,10.23,2.18.36.83-4.89,3.57-11.02,1.05Z" fill="#ee9583"/><path d="M253.67,160.15c6.38,2.44,10.28,15.79,9.15,20.86l4.34-1.75c-.5-6.42-4.74-18.46-13.49-19.11Z" fill="#ee9583"/><path d="M240.3,166.93s3.15,2.47,5.7,10.05c1.83,5.46,2.19,9.04,2.19,9.04,1.89.53,13.95,1.29,15.57-2.84l.84,5.76c-3.07,2.58-13.1,4.3-17.1,1.85-3.03,4.89-13.33,9.08-18.04,3.43,5.4.71,12.72-1,14.19-7.59,0,0-.33-13.3-3.35-19.71Z" fill="#ee9583"/><path d="M70.35,119.97l90.43-27.25c67.84-18.81,132.92,196.76,65.98,218.6,0,0-90.42,27.25-90.42,27.25C68.5,357.39,3.42,141.81,70.35,119.97Z" fill="#757574"/><path d="M154.19,213.79C107.23,71.48,5.29,103.57,48.3,247.12c46.96,142.31,148.9,110.22,105.89-33.33Z" fill="#4c4c4d"/><path d="M66,185.95l18.1-5.46c31.56-8.75,61.82,91.52,30.69,101.68,0,0-18.09,5.46-18.09,5.46-31.56,8.75-61.82-91.52-30.69-101.68Z" fill="#757574"/><path d="M104.99,229.59c-21.84-66.19-69.25-51.27-49.25,15.5,21.84,66.19,69.25,51.27,49.25-15.5Z" fill="#4c4c4d"/><path d="M164.72,329.47c30.07-12.91,30.09-80.74,22.36-107.83-9.65-34.9-46.67-114.42-90.27-107.98l-.21-.67c17.26-7,35.57,4.14,47.9,15.81,21,20.19,33.77,47.66,41.04,75.53,6.75,31.89,17.13,66.06,5.91,98.14-4.33,12.28-12.99,24.98-26.52,27.67l-.21-.67Z" fill="#4c4c4d"/><path d="M197.26,319.68c30.07-12.91,30.09-80.74,22.36-107.83-9.65-34.9-46.67-114.42-90.27-107.98l-.21-.67c17.26-7,35.57,4.14,47.9,15.81,21,20.19,33.77,47.66,41.04,75.53,6.75,31.89,17.13,66.06,5.91,98.14-4.33,12.28-12.99,24.98-26.52,27.67l-.21-.67Z" fill="#4c4c4d"/><path d="M70.87,224.82s5.12-1.8,5.12-1.8c8.94-2.91,18.89,25.46,10.1,28.77,0,0-5.12,1.8-5.12,1.8-8.94,2.91-18.89-25.46-10.1-28.77Z" fill="#757574"/><path d="M82.61,236.84c-7.11-18.7-20.51-13.82-13.93,5.07,7.11,18.7,20.51,13.82,13.93-5.07Z" fill="#4c4c4d"/></g></g><path d="M396.81,324.5c-8.02-8-72.89-7.61-76.53-7.57-.11,0-7.17-16.37-7.17-16.37-1.33.06-28.36,19.05-47.97,18.53v63.44h-4.63v13.63l-2.67-3.65c3.63,6.48,6.6,16.58,9.95,22.38h104.81c5.23-9.02,11.22-19.59,16.59-29.45,2.27-13.53,6.98-25.78,7.03-39.73.06-4.87,3.37-7.63,7.09-8.28-1.47-5.64-3.86-10.29-6.51-12.94Z" fill="#f7f7f7"/><path d="M372.61,414.88c-3.21,5.53-7.55,12.88-10.04,16.93-2.08,3.37-5.75,5.42-9.72,5.42h-65.3c-3.97,0-7.64-2.05-9.7-5.42-2.51-4.05-6.84-11.4-10.05-16.93h104.81Z" fill="#4c4c4d"/><path d="M305.54,330.03s9.54,3.26,10.95,3.63,5.04,3.72,5.04,3.72c0,0,5.03-.66,6.25-.34,1.22.32,11.46,1.17,11.46,1.17,0,0-10.8-4.21-12.72-4.71-1.92-.5-4.61.36-4.61.36-5.95-4.05-10.08-4-16.37-3.83Z" fill="#c0cadd"/><path d="M386.3,390.62c5.27-16.55,9.52-37.6,5.43-50.61,0,0,7.32,9.37,7.32,16.59,0,3.33-6.67,20.71-7.91,26.14-1.06,1.94-3.75,5.89-4.84,7.88Z" fill="#c0cadd"/><path d="M257.52,423.89c.27.08.48.16.65.22-.16-.06-.38-.13-.65-.22Z" fill="#ee9583"/><path d="M317.47,436.02s-24.68-.17-31.52,13.45c-3.43,6.84.76,24.01-2.27,27.04-3.03,3.03-22.38,6.31-28.13-1.83-5.76-8.14-3.65-23.73.04-35.37,3.77-20.44,68.01-36.81,61.89-3.29Z" fill="#4c4c4d"/><path d="M285.71,472.42c-3.34-23.9-54.49-28.82-54.49,0,0,4.62,1.78,8.92,6.41,8.92h41.68c4.62,0,7.54-4.44,6.41-8.92Z" fill="#fff"/><path d="M322.8,436.02s24.68-.17,31.52,13.45c3.43,6.84-.76,24.01,2.27,27.04,3.03,3.03,22.38,6.31,28.13-1.83,5.76-8.14,3.65-23.73-.04-35.37-3.77-20.44-68.01-36.81-61.89-3.29Z" fill="#4c4c4d"/><path d="M354.56,472.42c3.34-23.9,54.49-28.82,54.49,0,0,4.62-1.78,8.92-6.41,8.92h-41.68c-4.62,0-7.54-4.44-6.41-8.92Z" fill="#fff"/><path d="M267.8,414.88s-15.75-21.11-17.27-52.08,15.53-46.42,24.73-48.17c9.2-1.74,32.37,31.1,32.37,31.1l-9.53,55.85-30.31,13.3Z" fill="#f7f7f7"/><path d="M252.84,379.81c-.05-18.74-1.68-37.77,6.33-52.25,0,0-9.21,7.52-10.81,14.56-.54,6.97,1.87,28.48,4.48,37.68Z" fill="#c0cadd"/><path d="M405.97,373.58l4.86-.05c4.17-3.43,8.3-7.08,12.19-10.86-1.59-.31-3.78-.77-5.76-1.28-2.16,3.27-11.42,12.64-11.29,12.19Z" fill="#c0cadd"/><path d="M410.49,385.68c15.75,2.39,57.47,4.16,42.17-22.14-15.51-22.23-28.21-30.04-49.36-35.39-.44,2.43-2,4.62-5.06,5.82-15.75,6.17-25.26,19.49-31.74,34.33,8.82,6.7,18.8,12.74,20.28,13.23-.39,0,18,3.67,23.71,4.16Z" fill="#fbc5b7"/><path d="M377.8,377.66c13.12,6.01,7.24,3.35,25.17,6.95,2.75,1.58,9.11,2.05,13.18,1.69-1.69-3.24-4.69-5.4-7.08-8.3-4.1-4.83-7.38-11.74-3.1-27,2.52-9.05,8.85-14.06,11.94-18.12-6.94-3.12-15.49-5.85-23.42-5.35-17.08,1.09-34.89,25.21-34.61,35.1.14,5.07,10.15,11.17,17.93,15.02Z" fill="#f7f7f7"/><path d="M374.01,374.69c8.94,9.36,28.25,10.76,37.13,11.87.33-.78.96-2.24,1.95-4.3-1.27-1.35-2.7-2.68-4.02-4.25-9.38,2.82-32.41-1.44-35.06-3.32Z" fill="#c0cadd"/><path d="M400.38,451.69c5.45,7.26,11.96,5.05,11.96,5.05,5.26,3.48,12.22,1.86,12.22,1.86,23.42,4.34,24.49-33.56,27.66-41.35,3.17-12.77,13.5-55.9-7.74-57.04-11.51-5.52-23.66,3.42-30.2,12.62-7.31,9.54-6.5,19.81-5.3,30.35.3,2.45,1.51,8.47,1.84,9.39-9.16,4.04-19.84,12.08-9.55,21.6-2.06,2.77-5.17,13.03-.89,17.52Z" fill="#fbc5b7"/><path d="M400.38,451.69c5.45,7.26,11.96,5.05,11.96,5.05,5.26,3.48,12.22,1.86,12.22,1.86,2.75.98,13.62-.26,17.39-7.41-2.96,2.02-12.03,4.79-13.46,2.77-2.3,1.07-11,2.21-12.86-2.1,0,0-5.61,1.2-9.17-4.2-3.56-5.42,3.03-13.37,3.03-13.37-3.69-9.8-.47-13.05,6.32-18.84,0,0,.33-.18.2-3.79-6.16.88-4.9.68-9.13,2.9-8.5,4.49-14.04,11.89-5.63,19.6-2.06,2.77-5.17,13.03-.89,17.52Z" fill="#ee9583"/><path d="M408.98,403.14s-.01.05-.01.05c.3,2.45,1.51,8.47,1.84,9.39,0,0,1.94-.53,5.21-.9-.1-4.14-1.62-14.08-.78-19.69-4.74,2.4-6.87,5.11-6.87,5.11.13,2.16.35,4.21.61,6.05Z" fill="#ee9583"/><path d="M416.02,411.67c11.4-2.02,30.96,2.7,35.12,9.16,2.1-6.77,4-14.15,5.2-24.54-9.55-9.59-32.86-9.6-41.1-4.3-.84,5.59.69,15.56.78,19.69Z" fill="#fbc5b7"/><path d="M415.24,391.98c1.02-10.57,4.59-20.26,4.59-20.26-11.76,3.9-12.02,14.66-11.45,25.36,0,0,2.12-2.7,6.87-5.11Z" fill="#ee9583"/><path d="M438.53,263.24c-1.11-.47-2.25-.84-3.38-1.14,3.45-9.09,15.44-34.15,16.64-43.41-34.31,6.82-73.27-16.7-90.32-33.18-6.98-6.19-17.39-6.29-24.52-.29-7.76,6.53-17.46,12.45-23.43,7.95l-6.4,15.28c-32.33-17.31-53.38,33.03-18.41,43.92l1.96-4.69,128.02,53.65-1.96,4.69c29.77,16.59,52.72-28.5,21.78-42.78Z" fill="#fbc5b7"/><path d="M501.08,167.01c-4.58-17.43-40.77-25.69-57.34-28.59-3.31-.58-4.94-4.27-3.25-7.16,3.55-6.02,4.43-15.21-17.09-20.68-23.1-5.89-45.98,5.48-57.32,12.57-4.15,2.58-9.07,3.64-13.9,2.84-34.69-5.3-55.34,50.72-38.66,67.19,5.97,4.5,15.66-1.43,23.43-7.95,7.13-6,17.54-5.91,24.52.29,15.7,13.97,44.77,34.83,77.67,34.11,43,.98,69.35-28.81,61.94-52.61Z" fill="#4c4c4d"/><path d="M295.61,232.57l-1.54-3.75c3.4-1.25,7.88-2.8,6.2-7.39-2.03-4.46-6.31-2.4-9.6-.9-1.25-3.4-2.8-7.88-7.39-6.19-4.46,2.03-2.4,6.31-.91,9.6-3.36,1.22-7.91,2.84-6.2,7.39,2.03,4.45,6.31,2.4,9.6.9l1.54,3.75c2.23,5.4,10.51,2.04,8.3-3.41Z" fill="#ee9583"/><path d="M443.03,294.37l-1.53-3.75c3.4-1.25,7.89-2.78,6.21-7.38-2.02-4.46-6.3-2.42-9.6-.93-1.25-3.4-2.78-7.89-7.38-6.21-4.46,2.02-2.42,6.3-.93,9.6-3.4,1.25-7.89,2.78-6.21,7.38,1.97,4.44,6.36,2.41,9.6.93l1.53,3.75c2.25,5.44,10.5,2.03,8.31-3.39Z" fill="#ee9583"/><path d="M290.68,247.69l-13.13,31.33c-6.27,14.95.76,32.16,15.72,38.42l73.88,30.96c14.95,6.27,32.16-.78,38.43-15.73l13.13-31.33-128.02-53.65Z" fill="#dbbab4"/><path d="M368.77,214.66c-4.6-11.6-16.37-17.48-16.87-17.73-5.62-2.73-9.77,5.81-4.2,8.55.09.04,9,4.6,12.22,12.69,2.3,5.78,11.14,2.29,8.86-3.51Z" fill="#4c4c4d"/><path d="M385.28,222.51c11.56-4.7,23.95-.27,24.47-.08,5.86,2.17,2.56,11.07-3.27,8.95-.09-.03-9.55-3.31-17.61-.04-5.77,2.34-9.36-6.45-3.59-8.83Z" fill="#4c4c4d"/><path d="M366.76,232.85c-3.24-20.23-28.8-30.94-45.51-19.07-19.39,12.27-16.8,43.38,4.96,52.03,21.42,9.45,45.4-10.54,40.55-32.96Z" fill="#f7f7f7"/><path d="M421.45,255.76c-3.26-20.23-28.81-30.94-45.52-19.07-19.39,12.27-16.8,43.38,4.96,52.03,21.42,9.44,45.42-10.52,40.56-32.95Z" fill="#f7f7f7"/><path d="M333.17,215.63c-14.32-5.58-23.03,15.2-9.01,21.49,14.32,5.58,23.03-15.2,9.01-21.49Z" fill="#4c4c4d"/><path d="M388.28,239.29c-14.32-5.58-23.03,15.2-9.01,21.49,14.32,5.58,23.03-15.2,9.01-21.49Z" fill="#4c4c4d"/><path d="M367.55,273.96l2.08-14.52c1.2-8.38-9.52-12.87-14.66-6.15l-8.9,11.66c-3.19,4.19-1.57,10.26,3.29,12.3l7.12,2.98c4.86,2.03,10.32-1.07,11.07-6.28Z" fill="#ee9583"/><path d="M328.67,298.11c5.77,14.63,29.92,17.98,37.3,6.99,5.45-7.16,3.46-12.75,1.39-12.83-5.46-.84-13.94-2.74-20.58-5.1-6.53-2.17-9.73-5.9-14.23-6.76-3.3.08-7.02,9.32-3.87,17.7Z" fill="#4c4c4d"/><path d="M334.36,292.56c-2.09,1-4.46,2.99-5.69,5.55,4.12,12.47,25.55,16.81,32.7,10.99.48-3.74-1.37-7.46-1.37-7.46,4.11-1.96,6.59-6.78,7.36-9.37-5.46-.84-13.94-2.74-20.58-5.1-5.33-1.89-9.48-5.01-12.27-6.23-1.38,4.75-.15,11.62-.15,11.62Z" fill="#fff"/></svg>